<?xml version="1.0" encoding="utf-8"?>
<!-- Generator: Adobe Illustrator 19.0.0, SVG Export Plug-In . SVG Version: 6.00 Build 0)  -->
<svg version="1.1" id="Layer_1" xmlns="http://www.w3.org/2000/svg" xmlns:xlink="http://www.w3.org/1999/xlink" x="0px" y="0px"
	 width="154.5px" height="124.5px" viewBox="-172 330.5 154.5 124.5" style="enable-background:new -172 330.5 154.5 124.5;"
	 xml:space="preserve">
<style type="text/css">
	.st0{opacity:0.5;}
	.st1{fill:#15E682;}
	.st2{fill:none;stroke:#15E682;stroke-dasharray:4,8;}
	.st3{fill:#001D2C;}
	.st4{fill:#15E380;}
	.st5{fill:#808E96;}
	.st6{fill:#FFFFFF;}
</style>
<g class="st0">
	<ellipse class="st1" cx="-42.5" cy="439" rx="16.5" ry="16"/>
</g>
<path class="st2" d="M-18.8,382.1c0.4,2.6,0.7,5.2,0.8,7.9l-0.5,0c0,0.7,0,1.3,0,2c0,0.7,0,1.3,0,2l0.5,0c-0.1,2.7-0.3,5.3-0.8,7.9
	l-0.5-0.1c-0.2,1.3-0.5,2.6-0.8,3.9l0.5,0.1c-0.6,2.6-1.4,5.1-2.3,7.6l-0.5-0.2c-0.5,1.2-1,2.5-1.5,3.6l0.5,0.2
	c-1.1,2.4-2.3,4.8-3.7,7l-0.4-0.3c-0.7,1.1-1.4,2.2-2.2,3.3l0.4,0.3c-1.5,2.2-3.2,4.2-5,6.2l-0.4-0.3c-0.9,1-1.8,1.9-2.8,2.8
	l0.3,0.4c-1.9,1.8-4,3.5-6.1,5.1l-0.3-0.4c-1.1,0.8-2.2,1.5-3.3,2.2l0.3,0.4c-2.2,1.4-4.6,2.7-7,3.8l-0.2-0.5
	c-1.2,0.5-2.4,1.1-3.6,1.5l0.2,0.5c-2.5,0.9-5,1.7-7.6,2.3l-0.1-0.5c-1.3,0.3-2.6,0.6-3.9,0.8l0.1,0.5c-2.6,0.4-5.2,0.7-7.9,0.8
	l0-0.5c-0.7,0-1.3,0-2,0s-1.3,0-2,0l0,0.5c-2.7-0.1-5.3-0.4-7.9-0.8l0.1-0.5c-1.3-0.2-2.6-0.5-3.9-0.8l-0.1,0.5
	c-2.6-0.6-5.1-1.4-7.6-2.3l0.2-0.5c-1.2-0.5-2.4-1-3.6-1.5l-0.2,0.5c-2.4-1.1-4.8-2.4-7-3.8l0.3-0.4c-1.1-0.7-2.2-1.4-3.3-2.2
	l-0.3,0.4c-2.1-1.6-4.2-3.3-6.1-5.1l0.3-0.4c-1-0.9-1.9-1.8-2.8-2.8l-0.4,0.3c-1.8-1.9-3.5-4-5-6.2l0.4-0.3
	c-0.8-1.1-1.5-2.2-2.2-3.3l-0.4,0.3c-1.4-2.2-2.6-4.6-3.7-7l0.5-0.2c-0.5-1.2-1-2.4-1.5-3.6l-0.5,0.2c-0.9-2.5-1.7-5-2.3-7.6
	l0.5-0.1c-0.3-1.3-0.5-2.6-0.8-3.9l-0.5,0.1c-0.4-2.6-0.7-5.2-0.8-7.9l0.5,0c0-0.7,0-1.3,0-2c0-0.7,0-1.3,0-2l-0.5,0
	c0.1-2.7,0.3-5.3,0.8-7.9l0.5,0.1c0.2-1.3,0.5-2.6,0.8-3.9l-0.5-0.1c0.6-2.6,1.4-5.1,2.3-7.6l0.5,0.2c0.5-1.2,1-2.5,1.5-3.6
	l-0.5-0.2c1.1-2.4,2.3-4.8,3.7-7l0.4,0.3c0.7-1.1,1.4-2.2,2.2-3.3l-0.4-0.3c1.5-2.2,3.2-4.2,5-6.2l0.4,0.3c0.9-1,1.8-1.9,2.8-2.8
	l-0.3-0.4c1.9-1.8,4-3.5,6.1-5.1l0.3,0.4c1.1-0.8,2.2-1.5,3.3-2.2l-0.3-0.4c2.2-1.4,4.6-2.7,7-3.8l0.2,0.5c1.2-0.5,2.4-1.1,3.6-1.5
	l-0.2-0.5c2.5-0.9,5-1.7,7.6-2.3l0.1,0.5c1.3-0.3,2.6-0.6,3.9-0.8l-0.1-0.5c2.6-0.4,5.2-0.7,7.9-0.8l0,0.5c0.7,0,1.3,0,2,0
	s1.3,0,2,0l0-0.5c2.7,0.1,5.3,0.4,7.9,0.8l-0.1,0.5c1.3,0.2,2.6,0.5,3.9,0.8l0.1-0.5c2.6,0.6,5.1,1.4,7.6,2.3l-0.2,0.5
	c1.2,0.5,2.4,1,3.6,1.5l0.2-0.5c2.4,1.1,4.8,2.4,7,3.8l-0.3,0.4c1.1,0.7,2.2,1.4,3.3,2.2l0.3-0.4c2.1,1.6,4.2,3.3,6.1,5.1l-0.3,0.4
	c1,0.9,1.9,1.8,2.8,2.8l0.4-0.3c1.8,1.9,3.5,4,5,6.2l-0.4,0.3c0.8,1.1,1.5,2.2,2.2,3.3l0.4-0.3c1.4,2.2,2.6,4.6,3.7,7l-0.5,0.2
	c0.5,1.2,1,2.4,1.5,3.6l0.5-0.2c0.9,2.5,1.7,5,2.3,7.6l-0.5,0.1c0.3,1.3,0.5,2.6,0.8,3.9L-18.8,382.1z"/>
<g>
	<circle class="st3" cx="-110" cy="393" r="62"/>
</g>
<g class="st0">
	<ellipse class="st1" cx="-155.5" cy="347" rx="16.5" ry="16"/>
</g>
<path class="st4" d="M-142.4,376c-0.5,2.7-1.7,5.4-2.3,8.2c-1.6,7.9,2.6,15.9,10,19c0.7,0.3,1.5,0.6,1.9,1.2
	c1.1,1.4,0.1,3.4,0.2,5.1c0.2,2.4,2.3,4,3.8,5.8c2.2,2.7,3.1,6.2,4.5,9.4c1.4,3.2,3.6,6.4,7,7.3c-1.2-2.1-1-4.8-0.1-7
	c0.9-2.3,3.5-3.7,4-6c0.3-1.2,0.3-2.4,0.8-3.3c0.7-1.1,1.3-2.2,1.5-3.4c0.2-1.3-0.2-2.7-1.3-3.3c-1.3-0.7-3-0.2-4.4-0.8
	c-1.5-0.7-2-2.7-3.4-3.6c-1-0.6-2.2-0.5-3.3-0.9c-2-0.9-3.1-3.6-5.3-3.8c-1.2-0.1-2.2,0.6-3.3,1.1c-1.1,0.5-2.4,0.8-3.3-0.1
	c-1.2-1.2-0.3-3.9-1.9-4.6c-0.5-0.2-1.1-0.1-1.7-0.2c-1.7-0.2-2.9-2.4-2-3.9c0.9-1.5,3.4-1.7,4.4-0.3c0.6,0.8,1.3,2.4,2.5,0.9
	l4.4-5.8c1-1.4,2.3-2.9,4.1-2.9c0.7,0,1.6,0.2,2.2-0.2c0.5-0.5,0.4-1.4,0-1.9c-0.4-0.5-1.1-0.8-1.8-1.1c1.4,0.3,3-0.3,3.8-1.5
	c1.5-2,0.5-4.9-1.3-5.4c-0.7-0.2-1.5,0-1.9,0.5c0-0.6,0-1.2-0.3-1.7c-0.3-0.5-0.8-0.9-1.4-0.8c-0.5,0.1-0.8,0.5-1.1,1
	c-0.9,1.4-1.7,2.9-2.5,4.3c-1.8-0.2-2.9-2.5-2-4c1.2-2.2,4.9-2,6.1-4.3c0.6-1.1-0.2-2.9-1.4-2.8c-0.7,0.1-1.2,0.6-1.7,1
	c-0.5,0.4-1.3,0.7-1.8,0.3c-0.6-0.4-0.4-1.3-0.3-2.1c0.1-0.4,0-0.9-0.2-1.3C-135.6,367.1-139.5,371.2-142.4,376z"/>
<path class="st5" d="M-118.2,368.7c-0.4,2-0.1,4.1,1.7,5.1c2.2,1.2,1.1-3.4,2.8-3.8c1.8-0.5,1.8-1.1,2.1-1.4c0.3-0.3,4-1.3,3.5-2.8
	c-0.5-1.5-0.6-2.2-0.6-3.2c0-0.9-0.9-1.7-0.6-2.9c0.4-1.1-0.9-1.5-1.5-1.5c-0.6,0.1-1.4-0.7-2.5,0c-0.8,0.5-3.2,1.7-4.1,2.3
	c-0.9,0.6-3.6,1.6-2.5,2.1c1.1,0.5,2.5,0.5,2,1.4c-0.4,0.9-1.5,2.4-1.1,2.9C-118.4,367.4-118.1,368-118.2,368.7z"/>
<path class="st6" d="M-125,369.9c0.3,0.6,2.2,3.2,2.8,1.6c0.5-1.6,0.1-2.1-0.9-2.4C-124.1,368.8-125.2,369.4-125,369.9z"/>
<path class="st6" d="M-121.1,368.8c1.4,0.6,1.1-0.4,0.9-2.1c-0.3-1.7-1.1-4.9-2.1-4.7c-1,0.2-3.3,1.2-2.6,2.4
	c0.7,1.2,2.1,1.7,2.1,2.4C-122.8,367.5-122.4,368.3-121.1,368.8z"/>
<path class="st6" d="M-107.4,370.5c0.9,0.7,2.9,0.8,3.4-0.6c0.5-1.4-3.6-0.7-3.9-0.4C-108.1,369.7-108,370.1-107.4,370.5z"/>
<path class="st6" d="M-103.5,373.1c-1.4,2-2.2,3.9-0.7,3.9c1.5,0,3.1-0.6,3.2-1.9C-100.9,373.7-103.1,372.6-103.5,373.1z"/>
<path class="st6" d="M-121.7,381.6c2.6,0.4,3.8,1,3.7-0.9c0-2-1.6-3.2-1.9-2.4C-120.2,379.1-122.8,381.4-121.7,381.6z"/>
<path class="st5" d="M-90.6,362c0,0.7,0.4,1.4,0.6,2.2c0.3,0.9-0.1,2.3-1.1,2.2c-0.3,0-0.7-0.2-0.9-0.4c-1.1-0.7-3.4-1.6-4.5-1.1
	c-0.7,0.3-1,1-1.3,1.7c-0.3,0.7-1.4,3.6-1.2,4.4c0.3,1,2.3,2.2,4.4,1.6c0.6-0.2,1.4-0.4,1.7,0.2c0.2,0.4-0.1,0.8-0.4,1
	c-1.2,0.7-3.3-0.7-7.8,5.8c-0.4,0.6-0.9,1.3-1.1,2.1c-0.5,2.3,2.1,3.6,4.2,0.6c0.8-1.1,1.8-2.6,3.2-2.5c1.5,0.1,2.3,1.6,3.5,2.4
	c2.3,1.4,6.2-0.2,7.7,2.3c0.5,0.8,0.3,1.9-1.7,1.7c-5.2-0.5-5.7-0.5-6.6-0.8c-0.8-0.3-1.5-0.7-2.3-1c-5.3-1.8-12.1,5.5-10.7,13.1
	c1.2,6.2,7.5,2.6,11.1,4.1c1.3,0.5,1,1.2,0.9,1.9c-0.2,1.9,1.5,3.6,1.2,5.4c-0.1,0.8-0.9,1.4-0.8,2.2c0.1,1.9,1.1,4.3-0.6,7.8
	c-0.1,0.3,0.1,0.7,0.3,0.9c0.2,0.2,0.4,0.2,0.7,0.2c1.8,0.2,2.7-0.1,4.1-1.2c7.9-6.5,4.7-11.4,10.9-18.9c0.4-0.5,0.3-1.7-0.1-2.3
	c-0.2-0.3-0.5-0.4-0.8-0.5c-3.8-2-5-7-3.5-7.1c0.3,0,0.6,0.2,0.8,0.5c0.9,1,1.6,2.2,2,3.4c0.1,0.2,0.2,0.5,0.3,0.6
	c0.4,0.3,0.9,0,1.3-0.3c0.9-0.8,2-1.9,1.6-3c-0.4-1.3-2.3-1.7-2.4-3.1c1.4-0.4,3,0.4,3.9,1.6c1.5,1.9,1.6,4.6,2.9,6.7
	C-70.7,381.8-78.5,368.8-90.6,362z"/>
</svg>
