<svg width="40" height="40" viewBox="0 0 40 40" fill="none" xmlns="http://www.w3.org/2000/svg">
<path fill-rule="evenodd" clip-rule="evenodd" d="M40 20C40 31.0456 31.0457 40 20 40C8.95434 40 0 31.0456 0 20C0 8.9543 8.95434 0 20 0C31.0457 0 40 8.9543 40 20ZM15.4988 17.4966L15.2565 17.2364C14.5654 16.5648 13.6643 16.1986 12.712 16.1986C10.6896 16.1986 9.02083 17.8767 9.02083 19.9655C9.02083 22.0544 10.6896 23.7325 12.712 23.7325C13.6682 23.7325 14.5729 23.3631 15.265 22.6859L22.946 14.9159L22.9536 14.9081L22.9616 14.9005C24.2433 13.6748 25.9229 12.9968 27.688 12.9968C31.5017 12.9968 34.5805 16.1468 34.5805 19.9928C34.5805 23.8386 31.5017 26.9887 27.688 26.9887C25.9229 26.9887 24.2433 26.3108 22.9616 25.0851L22.9557 25.0796L22.9501 25.0739L22.9316 25.0554L22.9249 25.0488L22.9184 25.0419L22.5011 24.6055L21.9782 24.0585L22.5085 23.519L23.6683 22.3391L24.233 21.7648L24.7893 22.3471L25.1848 22.761C25.8699 23.4066 26.7565 23.7594 27.688 23.7594C29.7105 23.7594 31.3792 22.0814 31.3792 19.9924C31.3792 17.9036 29.7105 16.2255 27.688 16.2255C26.7542 16.2255 25.8654 16.5801 25.1795 17.2292L17.5154 24.983L17.5115 24.9869L17.5075 24.9909C16.2172 26.2595 14.5124 26.9616 12.712 26.9616C8.8984 26.9616 5.8195 23.8115 5.8195 19.9655C5.8195 16.1196 8.8984 12.9695 12.712 12.9695C14.5124 12.9695 16.2172 13.6716 17.5075 14.9401L17.5183 14.9507L17.5305 14.9627L17.5421 14.9753L17.8011 15.2535L18.3098 15.8001L17.7863 16.3325L16.6265 17.5119L16.0546 18.0935L15.4988 17.4966Z" fill="#1B2140"/>
</svg>
