<svg width="40" height="40" viewBox="0 0 40 40" fill="none" xmlns="http://www.w3.org/2000/svg">
<path fill-rule="evenodd" clip-rule="evenodd" d="M40 0H0V40H40V0ZM21.3622 31H7.54731C7.36126 31 7.22171 30.8597 7.26822 30.6258L9.96609 16.735C10.0126 16.5479 10.2452 16.4543 10.4312 16.6414L21.5948 30.5323C21.6879 30.7194 21.5948 31 21.3622 31ZM21.0832 10.0468H7.26822C7.03565 10.0468 6.94262 10.2806 7.03565 10.4209L18.1992 24.3586C18.3388 24.5457 18.6179 24.4989 18.6644 24.265L21.3622 10.3742C21.4088 10.2338 21.2692 10.0468 21.0832 10.0468ZM22.7577 10C22.6182 10 22.5251 10.1403 22.4786 10.2339C21.7809 15.0512 25.6881 19.588 30.5722 19.588H30.8513C30.9908 19.588 31.0839 19.4944 31.1304 19.3541L32.991 10.3274C33.0375 10.1871 32.898 10 32.7119 10H22.7577Z" fill="#3901F1"/>
</svg>
