<svg width="60" height="40" viewBox="0 0 60 40" fill="none" xmlns="http://www.w3.org/2000/svg">
<rect width="60" height="40" rx="4" fill="url(#paint0_linear_2675_9110)"/>
<path fill-rule="evenodd" clip-rule="evenodd" d="M14.0782 14.573C14.0782 14.573 13.9264 14.6164 13.677 14.6923C13.6336 14.5513 13.5685 14.3887 13.4818 14.2152C13.1999 13.673 12.777 13.3802 12.2782 13.3802C12.2457 13.3802 12.2131 13.3802 12.1698 13.3911C12.1643 13.3802 12.1562 13.3721 12.1481 13.364C12.1399 13.3559 12.1318 13.3477 12.1264 13.3369C11.9095 13.0983 11.6276 12.9899 11.2915 13.0007C10.6409 13.0224 9.99029 13.4887 9.46981 14.3236C9.10115 14.9091 8.81922 15.6465 8.74332 16.2212C7.99514 16.4489 7.47467 16.6115 7.46383 16.6224C7.08432 16.7416 7.07347 16.7525 7.0301 17.1103C6.99757 17.3814 6 25.015 6 25.015L14.1974 26.4354V14.5622C14.1562 14.5622 14.128 14.5665 14.1074 14.5697C14.0955 14.5715 14.0861 14.573 14.0782 14.573ZM12.1806 15.1585C11.9533 15.2267 11.714 15.3009 11.4706 15.3763C11.2497 15.4448 11.0254 15.5143 10.8035 15.5814C10.9336 15.0718 11.1939 14.5622 11.4975 14.226C11.6168 14.1067 11.7794 13.9658 11.9637 13.879C12.1481 14.2694 12.1914 14.8007 12.1806 15.1585ZM11.2915 13.4453C11.4433 13.4453 11.5734 13.4778 11.6818 13.5429C11.5083 13.6296 11.3348 13.7706 11.1722 13.9333C10.7602 14.3778 10.4457 15.0718 10.3156 15.7332L10.3155 15.7332L10.3153 15.7333C9.92503 15.8526 9.53478 15.9718 9.17705 16.0802C9.4156 15.0393 10.2939 13.467 11.2915 13.4453ZM10.0337 19.4091C10.0508 19.6829 10.3465 19.8723 10.7049 20.1019C11.2548 20.4541 11.9523 20.9009 12.018 21.8921C12.0939 23.1825 11.3348 24.0608 10.2397 24.1258C8.91681 24.2126 8.19032 23.4319 8.19032 23.4319L8.47224 22.2391C8.47224 22.2391 9.19873 22.7921 9.78427 22.7487C10.1638 22.7271 10.3047 22.4126 10.2939 22.1957C10.2701 21.7961 9.96866 21.5822 9.62956 21.3417C9.19583 21.034 8.7005 20.6826 8.64573 19.8428C8.55899 18.585 9.38307 17.3163 11.2047 17.197C11.9095 17.1537 12.2674 17.3272 12.2674 17.3272L11.8553 18.8886C11.8553 18.8886 11.3891 18.6717 10.8361 18.7151C10.0337 18.7693 10.0228 19.2789 10.0337 19.4091ZM12.6143 15.0284C12.6143 14.7031 12.571 14.2369 12.4192 13.8465C12.9179 13.9441 13.1565 14.4971 13.2649 14.8332C13.0697 14.8874 12.8529 14.9525 12.6143 15.0284ZM48.7113 18.3356H47.5727L47.6269 18.0645C47.7245 17.5007 48.0498 17.0019 48.6028 17.0019C48.8956 17.0019 49.1233 17.0886 49.1233 17.0886L49.4486 15.8091C49.4486 15.8091 49.1667 15.6682 48.5594 15.6682C47.9739 15.6682 47.3992 15.8308 46.9547 16.2103C46.3908 16.6874 46.1306 17.3705 46.0005 18.0645L45.9571 18.3356H45.1981L44.9595 19.5717H45.7185L44.8511 24.1584H46.4884L47.3559 19.5717H48.4835L48.7113 18.3356ZM26.8514 19.0838C27.296 18.5633 27.8598 18.2163 28.5863 18.2163C29.4429 18.2163 29.92 18.7693 29.8983 19.7127C29.8983 20.0054 29.855 20.4283 29.7791 20.7861L29.1393 24.1692H27.502L28.1201 20.8837C28.1743 20.656 28.196 20.3849 28.196 20.1572C28.196 19.7994 28.055 19.55 27.6863 19.55C27.1659 19.55 26.6129 20.2114 26.396 21.2958L25.8538 24.1584H24.2165L25.8105 15.7766H27.4586L26.8297 19.0729L26.8514 19.0838ZM22.0804 19.9837C22.0804 20.244 22.2973 20.4283 22.7093 20.656C23.3491 21.0247 23.8912 21.5235 23.8695 22.2391C23.8695 23.5403 22.8178 24.2668 21.3431 24.2668C20.3347 24.2668 19.7274 23.8656 19.7274 23.8656L20.1286 22.7054C20.1286 22.7054 20.7792 23.0632 21.4732 23.0632C21.9395 23.0632 22.1888 22.8138 22.1888 22.4994C22.1888 22.2066 22.0154 22.0006 21.5166 21.7186C20.8985 21.3608 20.4323 20.862 20.4323 20.2114C20.4323 19.0621 21.4298 18.238 22.8611 18.238C23.8912 18.238 24.2382 18.5091 24.2382 18.5091L23.8587 19.6693C23.8587 19.6693 23.3816 19.4416 22.8394 19.4416C22.3732 19.4416 22.0804 19.6476 22.0804 19.9837ZM33.6284 18.2163C31.6549 18.2163 30.3429 19.9946 30.3429 21.9789C30.3429 23.2475 31.1236 24.2776 32.5983 24.2776C34.5392 24.2776 35.8404 22.5427 35.8404 20.5151C35.8512 19.3331 35.1681 18.2163 33.6284 18.2163ZM32.826 23.009C32.2622 23.009 32.0344 22.5319 32.0344 21.9355C32.0344 20.9922 32.5224 19.4633 33.4115 19.4633C33.9971 19.4633 34.1814 19.9621 34.1814 20.45C34.1814 21.4693 33.6935 23.009 32.826 23.009ZM38.3126 19.1922C38.3126 19.1922 38.9415 18.2163 40.0475 18.2163C41.2511 18.2163 41.7391 19.203 41.7391 20.2982C41.7391 22.2933 40.4813 24.2668 38.5512 24.2668C37.9223 24.2668 37.5861 24.0499 37.5861 24.0499H37.5536L37.0982 26.4788H35.4609L36.5994 20.4934C36.7295 19.8102 36.8597 18.9103 36.9356 18.3139H38.3885L38.291 19.1922H38.3126ZM37.8139 22.803C37.8139 22.803 38.0632 23.0415 38.4861 23.0415C39.397 23.0415 40.0259 21.5235 40.0259 20.4717C40.0259 20.038 39.8741 19.5717 39.3753 19.5717C38.8114 19.5717 38.2801 20.2548 38.0849 21.2741L37.8139 22.803ZM44.0812 15.8633C43.5607 15.8633 43.1379 16.2754 43.1379 16.8175C43.1379 17.3055 43.4415 17.6416 43.9077 17.6416H43.9294C44.439 17.6416 44.8836 17.2946 44.8945 16.6874C44.9053 16.1995 44.58 15.8633 44.0812 15.8633ZM43.4306 24.1584H41.7825L42.8885 18.3464H44.5475L43.4306 24.1584ZM51.1726 22.3367C51.6281 20.9271 52.6582 18.3464 52.6582 18.3464H54.3822L52.3762 22.6512C51.6714 24.1258 50.9775 25.1993 50.2293 25.9041C49.6438 26.4463 48.9606 26.7173 48.6245 26.7933L48.1691 25.4053C48.4402 25.3077 48.7872 25.1668 49.0908 24.9391C49.4703 24.6788 49.7847 24.321 49.9799 23.9523C50.0233 23.8764 50.0341 23.8005 50.0124 23.6813L49.0257 18.3464H50.7498C50.7498 18.3464 51.1184 21.8813 51.151 22.3367H51.1726ZM17.8516 25.568L14.4468 26.4137V14.6923C14.6637 14.9091 15.2492 15.473 15.2492 15.473C15.2492 15.473 16.2034 15.4947 16.2576 15.4947C16.3119 15.4947 16.3661 15.538 16.3769 15.6031C16.3878 15.6682 17.8516 25.568 17.8516 25.568Z" fill="white"/>
<defs>
<linearGradient id="paint0_linear_2675_9110" x1="-4.16187e-07" y1="0.487805" x2="59.7045" y2="39.9592" gradientUnits="userSpaceOnUse">
<stop stop-color="#4E902E"/>
<stop offset="0.5625" stop-color="#88C027"/>
</linearGradient>
</defs>
</svg>
